<svg xmlns="http://www.w3.org/2000/svg" width="128" height="128" viewBox="0 0 24 24"><path fill="currentColor" d="M5 21q-.825 0-1.413-.588T3 19V5q0-.825.588-1.413T5 3h8.925l-2 2H5v14h14v-6.95l2-2V19q0 .825-.588 1.413T19 21H5Zm7-9Zm-3 2v-2.425q0-.4.15-.763t.425-.637l8.6-8.6q.3-.3.675-.45t.75-.15q.4 0 .763.15t.662.45L22.425 3q.275.3.425.663T23 4.4q0 .375-.138.738t-.437.662l-8.6 8.6q-.275.275-.637.438t-.763.162H10q-.425 0-.713-.288T9 14Zm12.025-9.6l-1.4-1.4l1.4 1.4ZM11 13h1.4l5.8-5.8l-.7-.7l-.725-.7L11 11.575V13Zm6.5-6.5l-.725-.7l.725.7l.7.7l-.7-.7Z"/></svg>